STARTFONT 2.1
COMMENT 
COMMENT This file has been produced by ttf2bdf written by Subhabrata Biswas
COMMENT 
COMMENT For comments, questions, bug reports, send a mail to
COMMENT                                           subhabrata.biswas@usa.net
COMMENT 
FONT -*-VCR OSD Mono-Medium-R-Normal--21-160-96-96-c-12--fontspecific
SIZE 16 96 96
FONTBOUNDINGBOX 12 22 0 0
STARTPROPERTIES 15
FOUNDRY "Misc"
FAMILY_NAME "VCR OSD Mono"
WEIGHT_NAME "Medium"
SLANT "R"
SETWIDTH_NAME "Normal"
PIXEL_SIZE 18
POINT_SIZE 160
RESOLUTION_X 96
RESOLUTION_Y 96
SPACING "C"
CHARSET_ENCODING "fontspecific"
FONT_ASCENT 19
FONT_DESCENT 3
DEFAULT_CHAR 1
COPYRIGHT "You may wish to put your copyright here"
ENDPROPERTIES
CHARS 255
STARTCHAR C0001
ENCODING 1
SWIDTH 656 0
DWIDTH 14 0
BBX 13 19 0 0
BITMAP
FFF8
FFF8
C018
E078
E058
D098
C898
C918
C618
C218
C618
C918
C918
D098
D058
E058
C038
FFF8
FFF8
ENDCHAR
STARTCHAR C0002
ENCODING 2
SWIDTH 656 0
DWIDTH 14 0
BBX 13 19 0 0
BITMAP
FFF8
FFF8
C018
E078
E058
D098
C898
C918
C618
C218
C618
C918
C918
D098
D058
E058
C038
FFF8
FFF8
ENDCHAR
STARTCHAR C0003
ENCODING 3
SWIDTH 656 0
DWIDTH 14 0
BBX 13 19 0 0
BITMAP
FFF8
FFF8
C018
E078
E058
D098
C898
C918
C618
C218
C618
C918
C918
D098
D058
E058
C038
FFF8
FFF8
ENDCHAR
STARTCHAR C0004
ENCODING 4
SWIDTH 656 0
DWIDTH 14 0
BBX 13 19 0 0
BITMAP
FFF8
FFF8
C018
E078
E058
D098
C898
C918
C618
C218
C618
C918
C918
D098
D058
E058
C038
FFF8
FFF8
ENDCHAR
STARTCHAR C0005
ENCODING 5
SWIDTH 656 0
DWIDTH 14 0
BBX 13 19 0 0
BITMAP
FFF8
FFF8
C018
E078
E058
D098
C898
C918
C618
C218
C618
C918
C918
D098
D058
E058
C038
FFF8
FFF8
ENDCHAR
STARTCHAR C0006
ENCODING 6
SWIDTH 656 0
DWIDTH 14 0
BBX 13 19 0 0
BITMAP
FFF8
FFF8
C018
E078
E058
D098
C898
C918
C618
C218
C618
C918
C918
D098
D058
E058
C038
FFF8
FFF8
ENDCHAR
STARTCHAR C0007
ENCODING 7
SWIDTH 656 0
DWIDTH 14 0
BBX 13 19 0 0
BITMAP
FFF8
FFF8
C018
E078
E058
D098
C898
C918
C618
C218
C618
C918
C918
D098
D058
E058
C038
FFF8
FFF8
ENDCHAR
STARTCHAR C0008
ENCODING 8
SWIDTH 656 0
DWIDTH 14 0
BBX 13 19 0 0
BITMAP
FFF8
FFF8
C018
E078
E058
D098
C898
C918
C618
C218
C618
C918
C918
D098
D058
E058
C038
FFF8
FFF8
ENDCHAR
STARTCHAR C0009
ENCODING 9
SWIDTH 656 0
DWIDTH 14 0
BBX 13 19 0 0
BITMAP
FFF8
FFF8
C018
E078
E058
D098
C898
C918
C618
C218
C618
C918
C918
D098
D058
E058
C038
FFF8
FFF8
ENDCHAR
STARTCHAR C0010
ENCODING 10
SWIDTH 656 0
DWIDTH 14 0
BBX 13 19 0 0
BITMAP
FFF8
FFF8
C018
E078
E058
D098
C898
C918
C618
C218
C618
C918
C918
D098
D058
E058
C038
FFF8
FFF8
ENDCHAR
STARTCHAR C0011
ENCODING 11
SWIDTH 656 0
DWIDTH 14 0
BBX 13 19 0 0
BITMAP
FFF8
FFF8
C018
E078
E058
D098
C898
C918
C618
C218
C618
C918
C918
D098
D058
E058
C038
FFF8
FFF8
ENDCHAR
STARTCHAR C0012
ENCODING 12
SWIDTH 656 0
DWIDTH 14 0
BBX 13 19 0 0
BITMAP
FFF8
FFF8
C018
E078
E058
D098
C898
C918
C618
C218
C618
C918
C918
D098
D058
E058
C038
FFF8
FFF8
ENDCHAR
STARTCHAR C0013
ENCODING 13
SWIDTH 656 0
DWIDTH 14 0
BBX 13 19 0 0
BITMAP
FFF8
FFF8
C018
E078
E058
D098
C898
C918
C618
C218
C618
C918
C918
D098
D058
E058
C038
FFF8
FFF8
ENDCHAR
STARTCHAR C0014
ENCODING 14
SWIDTH 656 0
DWIDTH 14 0
BBX 13 19 0 0
BITMAP
FFF8
FFF8
C018
E078
E058
D098
C898
C918
C618
C218
C618
C918
C918
D098
D058
E058
C038
FFF8
FFF8
ENDCHAR
STARTCHAR C0015
ENCODING 15
SWIDTH 656 0
DWIDTH 14 0
BBX 13 19 0 0
BITMAP
FFF8
FFF8
C018
E078
E058
D098
C898
C918
C618
C218
C618
C918
C918
D098
D058
E058
C038
FFF8
FFF8
ENDCHAR
STARTCHAR C0016
ENCODING 16
SWIDTH 656 0
DWIDTH 14 0
BBX 13 19 0 0
BITMAP
FFF8
FFF8
C018
E078
E058
D098
C898
C918
C618
C218
C618
C918
C918
D098
D058
E058
C038
FFF8
FFF8
ENDCHAR
STARTCHAR C0017
ENCODING 17
SWIDTH 656 0
DWIDTH 14 0
BBX 13 19 0 0
BITMAP
FFF8
FFF8
C018
E078
E058
D098
C898
C918
C618
C218
C618
C918
C918
D098
D058
E058
C038
FFF8
FFF8
ENDCHAR
STARTCHAR C0018
ENCODING 18
SWIDTH 656 0
DWIDTH 14 0
BBX 13 19 0 0
BITMAP
FFF8
FFF8
C018
E078
E058
D098
C898
C918
C618
C218
C618
C918
C918
D098
D058
E058
C038
FFF8
FFF8
ENDCHAR
STARTCHAR C0019
ENCODING 19
SWIDTH 656 0
DWIDTH 14 0
BBX 13 19 0 0
BITMAP
FFF8
FFF8
C018
E078
E058
D098
C898
C918
C618
C218
C618
C918
C918
D098
D058
E058
C038
FFF8
FFF8
ENDCHAR
STARTCHAR C0020
ENCODING 20
SWIDTH 656 0
DWIDTH 14 0
BBX 13 19 0 0
BITMAP
FFF8
FFF8
C018
E078
E058
D098
C898
C918
C618
C218
C618
C918
C918
D098
D058
E058
C038
FFF8
FFF8
ENDCHAR
STARTCHAR C0021
ENCODING 21
SWIDTH 656 0
DWIDTH 14 0
BBX 13 19 0 0
BITMAP
FFF8
FFF8
C018
E078
E058
D098
C898
C918
C618
C218
C618
C918
C918
D098
D058
E058
C038
FFF8
FFF8
ENDCHAR
STARTCHAR C0022
ENCODING 22
SWIDTH 656 0
DWIDTH 14 0
BBX 13 19 0 0
BITMAP
FFF8
FFF8
C018
E078
E058
D098
C898
C918
C618
C218
C618
C918
C918
D098
D058
E058
C038
FFF8
FFF8
ENDCHAR
STARTCHAR C0023
ENCODING 23
SWIDTH 656 0
DWIDTH 14 0
BBX 13 19 0 0
BITMAP
FFF8
FFF8
C018
E078
E058
D098
C898
C918
C618
C218
C618
C918
C918
D098
D058
E058
C038
FFF8
FFF8
ENDCHAR
STARTCHAR C0024
ENCODING 24
SWIDTH 656 0
DWIDTH 14 0
BBX 13 19 0 0
BITMAP
FFF8
FFF8
C018
E078
E058
D098
C898
C918
C618
C218
C618
C918
C918
D098
D058
E058
C038
FFF8
FFF8
ENDCHAR
STARTCHAR C0025
ENCODING 25
SWIDTH 656 0
DWIDTH 14 0
BBX 13 19 0 0
BITMAP
FFF8
FFF8
C018
E078
E058
D098
C898
C918
C618
C218
C618
C918
C918
D098
D058
E058
C038
FFF8
FFF8
ENDCHAR
STARTCHAR C0026
ENCODING 26
SWIDTH 656 0
DWIDTH 14 0
BBX 13 19 0 0
BITMAP
FFF8
FFF8
C018
E078
E058
D098
C898
C918
C618
C218
C618
C918
C918
D098
D058
E058
C038
FFF8
FFF8
ENDCHAR
STARTCHAR C0027
ENCODING 27
SWIDTH 656 0
DWIDTH 14 0
BBX 13 19 0 0
BITMAP
FFF8
FFF8
C018
E078
E058
D098
C898
C918
C618
C218
C618
C918
C918
D098
D058
E058
C038
FFF8
FFF8
ENDCHAR
STARTCHAR C0028
ENCODING 28
SWIDTH 656 0
DWIDTH 14 0
BBX 13 19 0 0
BITMAP
FFF8
FFF8
C018
E078
E058
D098
C898
C918
C618
C218
C618
C918
C918
D098
D058
E058
C038
FFF8
FFF8
ENDCHAR
STARTCHAR C0029
ENCODING 29
SWIDTH 0 0
DWIDTH 0 0
BBX 1 1 0 -1
BITMAP
00
ENDCHAR
STARTCHAR C0030
ENCODING 30
SWIDTH 656 0
DWIDTH 14 0
BBX 13 19 0 0
BITMAP
FFF8
FFF8
C018
E078
E058
D098
C898
C918
C618
C218
C618
C918
C918
D098
D058
E058
C038
FFF8
FFF8
ENDCHAR
STARTCHAR C0031
ENCODING 31
SWIDTH 656 0
DWIDTH 14 0
BBX 13 19 0 0
BITMAP
FFF8
FFF8
C018
E078
E058
D098
C898
C918
C618
C218
C618
C918
C918
D098
D058
E058
C038
FFF8
FFF8
ENDCHAR
STARTCHAR C0032- 
ENCODING 32
SWIDTH 562 0
DWIDTH 12 0
BBX 1 1 0 -1
BITMAP
00
ENDCHAR
STARTCHAR C0033-!
ENCODING 33
SWIDTH 562 0
DWIDTH 12 0
BBX 2 14 4 1
BITMAP
C0
C0
C0
C0
C0
C0
C0
C0
C0
C0
00
00
C0
C0
ENDCHAR
STARTCHAR C0034-"
ENCODING 34
SWIDTH 562 0
DWIDTH 12 0
BBX 8 4 2 11
BITMAP
E7
E7
42
42
ENDCHAR
STARTCHAR C0035-#
ENCODING 35
SWIDTH 562 0
DWIDTH 12 0
BBX 10 13 1 2
BITMAP
0300
3300
33C0
3FC0
FF00
F300
3300
33C0
3FC0
FF00
F300
3300
3000
ENDCHAR
STARTCHAR C0036-$
ENCODING 36
SWIDTH 562 0
DWIDTH 12 0
BBX 10 14 1 1
BITMAP
0C00
3F00
7F80
EDC0
CCC0
EC00
7F00
3F80
0DC0
CCC0
EDC0
7F80
3F00
0C00
ENDCHAR
STARTCHAR C0037-%
ENCODING 37
SWIDTH 562 0
DWIDTH 12 0
BBX 10 14 1 1
BITMAP
70C0
F8C0
D8C0
D9C0
FB80
7700
0E00
1C00
3B80
77C0
E6C0
C6C0
C7C0
C380
ENDCHAR
STARTCHAR C0038-&
ENCODING 38
SWIDTH 562 0
DWIDTH 12 0
BBX 10 16 1 1
BITMAP
1C00
3E00
6300
6300
6300
6300
3600
3E00
7C00
FC00
CEC0
C7C0
C380
E380
7FC0
3EC0
ENDCHAR
STARTCHAR C0039-'
ENCODING 39
SWIDTH 562 0
DWIDTH 12 0
BBX 2 4 4 11
BITMAP
C0
C0
80
80
ENDCHAR
STARTCHAR C0040-(
ENCODING 40
SWIDTH 562 0
DWIDTH 12 0
BBX 5 16 3 1
BITMAP
18
30
60
C0
C0
C0
C0
C0
C0
C0
C0
C0
C0
60
30
18
ENDCHAR
STARTCHAR C0041-)
ENCODING 41
SWIDTH 562 0
DWIDTH 12 0
BBX 5 16 4 1
BITMAP
C0
60
30
18
18
18
18
18
18
18
18
18
18
30
60
C0
ENDCHAR
STARTCHAR C0042-*
ENCODING 42
SWIDTH 562 0
DWIDTH 12 0
BBX 8 9 2 7
BITMAP
18
DB
DB
3C
3C
3C
DB
DB
18
ENDCHAR
STARTCHAR C0043-+
ENCODING 43
SWIDTH 562 0
DWIDTH 12 0
BBX 10 10 1 3
BITMAP
0C00
0C00
0C00
0C00
FFC0
FFC0
0C00
0C00
0C00
0C00
ENDCHAR
STARTCHAR C0044-,
ENCODING 44
SWIDTH 562 0
DWIDTH 12 0
BBX 4 4 3 1
BITMAP
30
30
60
C0
ENDCHAR
STARTCHAR C0045--
ENCODING 45
SWIDTH 562 0
DWIDTH 12 0
BBX 8 2 2 7
BITMAP
FF
FF
ENDCHAR
STARTCHAR C0046-.
ENCODING 46
SWIDTH 562 0
DWIDTH 12 0
BBX 2 2 4 1
BITMAP
C0
C0
ENDCHAR
STARTCHAR C0047-/
ENCODING 47
SWIDTH 562 0
DWIDTH 12 0
BBX 10 14 1 1
BITMAP
00C0
00C0
00C0
01C0
0380
0700
0E00
1C00
3800
7000
E000
C000
C000
C000
ENDCHAR
STARTCHAR C0048-0
ENCODING 48
SWIDTH 562 0
DWIDTH 12 0
BBX 10 14 1 1
BITMAP
3F00
7F80
C0C0
C3C0
C7C0
CFC0
DEC0
FCC0
F8C0
F0C0
C0C0
E1C0
7F80
3F00
ENDCHAR
STARTCHAR C0049-1
ENCODING 49
SWIDTH 562 0
DWIDTH 12 0
BBX 6 14 3 1
BITMAP
30
70
F0
F0
30
30
30
30
30
30
30
30
FC
FC
ENDCHAR
STARTCHAR C0050-2
ENCODING 50
SWIDTH 562 0
DWIDTH 12 0
BBX 10 14 1 1
BITMAP
3F00
7F80
C0C0
C0C0
00C0
01C0
3F80
7F00
E000
C000
C000
C000
FFC0
FFC0
ENDCHAR
STARTCHAR C0051-3
ENCODING 51
SWIDTH 562 0
DWIDTH 12 0
BBX 10 14 1 1
BITMAP
3F00
7F80
C0C0
C0C0
00C0
01C0
0F80
0F80
01C0
00C0
C0C0
E1C0
7F80
3F00
ENDCHAR
STARTCHAR C0052-4
ENCODING 52
SWIDTH 562 0
DWIDTH 12 0
BBX 10 14 1 1
BITMAP
0300
0700
0F00
1F00
3B00
7300
E300
C300
FFC0
FFC0
0300
0300
0300
0300
ENDCHAR
STARTCHAR C0053-5
ENCODING 53
SWIDTH 562 0
DWIDTH 12 0
BBX 10 14 1 1
BITMAP
FFC0
FFC0
C000
C000
FF00
FF80
01C0
00C0
00C0
00C0
C0C0
E1C0
7F80
3F00
ENDCHAR
STARTCHAR C0054-6
ENCODING 54
SWIDTH 562 0
DWIDTH 12 0
BBX 10 14 1 1
BITMAP
3F00
7F80
C0C0
C0C0
C000
C000
FF00
FF80
C1C0
C0C0
C0C0
E1C0
7F80
3F00
ENDCHAR
STARTCHAR C0055-7
ENCODING 55
SWIDTH 562 0
DWIDTH 12 0
BBX 10 14 1 1
BITMAP
FFC0
FFC0
00C0
00C0
01C0
0380
0700
0E00
0C00
0C00
0C00
0C00
0C00
0C00
ENDCHAR
STARTCHAR C0056-8
ENCODING 56
SWIDTH 562 0
DWIDTH 12 0
BBX 10 14 1 1
BITMAP
3F00
7F80
C0C0
C0C0
C0C0
E1C0
7F80
7F80
E1C0
C0C0
C0C0
E1C0
7F80
3F00
ENDCHAR
STARTCHAR C0057-9
ENCODING 57
SWIDTH 562 0
DWIDTH 12 0
BBX 10 14 1 1
BITMAP
3F00
7F80
C0C0
C0C0
C0C0
E0C0
7FC0
3FC0
00C0
00C0
C0C0
E1C0
7F80
3F00
ENDCHAR
STARTCHAR C0058-:
ENCODING 58
SWIDTH 562 0
DWIDTH 12 0
BBX 2 10 4 3
BITMAP
C0
C0
00
00
00
00
00
00
C0
C0
ENDCHAR
STARTCHAR C0059-;
ENCODING 59
SWIDTH 562 0
DWIDTH 12 0
BBX 4 12 2 1
BITMAP
30
30
00
00
00
00
00
00
30
30
60
C0
ENDCHAR
STARTCHAR C0060-<
ENCODING 60
SWIDTH 562 0
DWIDTH 12 0
BBX 7 15 2 1
BITMAP
02
06
0E
1C
38
70
E0
C0
E0
70
38
1C
0E
0E
02
ENDCHAR
STARTCHAR C0061-=
ENCODING 61
SWIDTH 562 0
DWIDTH 12 0
BBX 10 6 1 5
BITMAP
FFC0
FFC0
0000
0000
FFC0
FFC0
ENDCHAR
STARTCHAR C0062->
ENCODING 62
SWIDTH 562 0
DWIDTH 12 0
BBX 7 15 2 1
BITMAP
C0
E0
70
30
1C
0E
0E
02
0E
0E
1C
30
70
E0
C0
ENDCHAR
STARTCHAR C0063-?
ENCODING 63
SWIDTH 562 0
DWIDTH 12 0
BBX 10 14 1 1
BITMAP
3F00
7F80
C0C0
C0C0
01C0
0380
0700
0E00
0C00
0000
0000
0000
0C00
0C00
ENDCHAR
STARTCHAR C0064-@
ENCODING 64
SWIDTH 562 0
DWIDTH 12 0
BBX 10 13 1 2
BITMAP
3F00
3F00
C0C0
C0C0
FF40
F340
F340
F3C0
CEC0
3EC0
30C0
3F00
3F00
ENDCHAR
STARTCHAR C0065-A
ENCODING 65
SWIDTH 562 0
DWIDTH 12 0
BBX 10 14 1 1
BITMAP
0C00
1E00
7380
7380
E1C0
C0C0
C0C0
C0C0
FFC0
FFC0
C0C0
C0C0
C0C0
C0C0
ENDCHAR
STARTCHAR C0066-B
ENCODING 66
SWIDTH 562 0
DWIDTH 12 0
BBX 10 14 1 1
BITMAP
FF00
FF80
C1C0
C0C0
C0C0
C1C0
FF80
FF80
C1C0
C0C0
C0C0
C1C0
FF80
FF00
ENDCHAR
STARTCHAR C0067-C
ENCODING 67
SWIDTH 562 0
DWIDTH 12 0
BBX 10 14 1 1
BITMAP
3F00
7F80
C0C0
C0C0
C000
C000
C000
C000
C000
C000
C0C0
E1C0
7F80
3F00
ENDCHAR
STARTCHAR C0068-D
ENCODING 68
SWIDTH 562 0
DWIDTH 12 0
BBX 10 14 1 1
BITMAP
FF00
FF80
C1C0
C0C0
C0C0
C0C0
C0C0
C0C0
C0C0
C0C0
C0C0
C1C0
FF80
FF00
ENDCHAR
STARTCHAR C0069-E
ENCODING 69
SWIDTH 562 0
DWIDTH 12 0
BBX 10 14 1 1
BITMAP
FFC0
FFC0
C000
C000
C000
C000
FF00
FF00
C000
C000
C000
C000
FFC0
FFC0
ENDCHAR
STARTCHAR C0070-F
ENCODING 70
SWIDTH 562 0
DWIDTH 12 0
BBX 10 14 1 1
BITMAP
FFC0
FFC0
C000
C000
C000
C000
FF00
FF00
C000
C000
C000
C000
C000
C000
ENDCHAR
STARTCHAR C0071-G
ENCODING 71
SWIDTH 562 0
DWIDTH 12 0
BBX 10 14 1 1
BITMAP
3F00
7F80
C0C0
C0C0
C000
C000
C7C0
C7C0
C0C0
C0C0
C0C0
E1C0
7F80
3F00
ENDCHAR
STARTCHAR C0072-H
ENCODING 72
SWIDTH 562 0
DWIDTH 12 0
BBX 10 14 1 1
BITMAP
C0C0
C0C0
C0C0
C0C0
C0C0
C0C0
FFC0
FFC0
C0C0
C0C0
C0C0
C0C0
C0C0
C0C0
ENDCHAR
STARTCHAR C0073-I
ENCODING 73
SWIDTH 562 0
DWIDTH 12 0
BBX 6 14 3 1
BITMAP
FC
FC
30
30
30
30
30
30
30
30
30
30
FC
FC
ENDCHAR
STARTCHAR C0074-J
ENCODING 74
SWIDTH 562 0
DWIDTH 12 0
BBX 10 14 1 1
BITMAP
0FC0
0FC0
0300
0300
0300
0300
0300
0300
0300
0300
C300
E700
7E00
3C00
ENDCHAR
STARTCHAR C0075-K
ENCODING 75
SWIDTH 562 0
DWIDTH 12 0
BBX 10 14 1 1
BITMAP
C180
C1C0
C700
CF00
CE00
D800
F000
F000
D800
CE00
CF00
C700
C1C0
C180
ENDCHAR
STARTCHAR C0076-L
ENCODING 76
SWIDTH 562 0
DWIDTH 12 0
BBX 10 14 1 1
BITMAP
C000
C000
C000
C000
C000
C000
C000
C000
C000
C000
C000
C000
FFC0
FFC0
ENDCHAR
STARTCHAR C0077-M
ENCODING 77
SWIDTH 562 0
DWIDTH 12 0
BBX 10 14 1 1
BITMAP
C0C0
C0C0
E1C0
F3C0
FFC0
DEC0
CCC0
CCC0
C0C0
C0C0
C0C0
C0C0
C0C0
C0C0
ENDCHAR
STARTCHAR C0078-N
ENCODING 78
SWIDTH 562 0
DWIDTH 12 0
BBX 10 14 1 1
BITMAP
C0C0
C0C0
C0C0
E0C0
F0C0
F8C0
DCC0
CEC0
C7C0
C3C0
C1C0
C0C0
C0C0
C0C0
ENDCHAR
STARTCHAR C0079-O
ENCODING 79
SWIDTH 562 0
DWIDTH 12 0
BBX 10 14 1 1
BITMAP
3F00
7F80
C0C0
C0C0
C0C0
C0C0
C0C0
C0C0
C0C0
C0C0
C0C0
E1C0
7F80
3F00
ENDCHAR
STARTCHAR C0080-P
ENCODING 80
SWIDTH 562 0
DWIDTH 12 0
BBX 10 14 1 1
BITMAP
FF00
FF80
C1C0
C0C0
C0C0
C1C0
FF80
FF00
C000
C000
C000
C000
C000
C000
ENDCHAR
STARTCHAR C0081-Q
ENCODING 81
SWIDTH 562 0
DWIDTH 12 0
BBX 10 14 1 1
BITMAP
3F00
7F80
C0C0
C0C0
C0C0
C0C0
C0C0
C0C0
C0C0
CCC0
C6C0
E380
7FC0
3CC0
ENDCHAR
STARTCHAR C0082-R
ENCODING 82
SWIDTH 562 0
DWIDTH 12 0
BBX 10 14 1 1
BITMAP
FF00
FF80
C1C0
C0C0
C0C0
C1C0
FF80
FF00
DC00
CE00
C700
C380
C1C0
C0C0
ENDCHAR
STARTCHAR C0083-S
ENCODING 83
SWIDTH 562 0
DWIDTH 12 0
BBX 10 14 1 1
BITMAP
3F00
7F80
C0C0
C0C0
C000
E000
7F00
3F80
01C0
00C0
C0C0
E1C0
7F80
3F00
ENDCHAR
STARTCHAR C0084-T
ENCODING 84
SWIDTH 562 0
DWIDTH 12 0
BBX 10 14 1 1
BITMAP
FFC0
FFC0
0C00
0C00
0C00
0C00
0C00
0C00
0C00
0C00
0C00
0C00
0C00
0C00
ENDCHAR
STARTCHAR C0085-U
ENCODING 85
SWIDTH 562 0
DWIDTH 12 0
BBX 10 14 1 1
BITMAP
C0C0
C0C0
C0C0
C0C0
C0C0
C0C0
C0C0
C0C0
C0C0
C0C0
C0C0
E1C0
7F80
3F00
ENDCHAR
STARTCHAR C0086-V
ENCODING 86
SWIDTH 562 0
DWIDTH 12 0
BBX 10 14 1 1
BITMAP
C0C0
C0C0
C0C0
C0C0
C0C0
C0C0
C0C0
C0C0
C0C0
E1C0
7380
3F00
1E00
0C00
ENDCHAR
STARTCHAR C0087-W
ENCODING 87
SWIDTH 562 0
DWIDTH 12 0
BBX 10 14 1 1
BITMAP
C0C0
C0C0
C0C0
C0C0
C0C0
C0C0
CCC0
CCC0
CCC0
CCC0
CCC0
FFC0
7F80
3300
ENDCHAR
STARTCHAR C0088-X
ENCODING 88
SWIDTH 562 0
DWIDTH 12 0
BBX 10 14 1 1
BITMAP
C0C0
C0C0
C0C0
E1C0
7380
3F00
1E00
1E00
1E00
7380
E1C0
C0C0
C0C0
C0C0
ENDCHAR
STARTCHAR C0089-Y
ENCODING 89
SWIDTH 562 0
DWIDTH 12 0
BBX 10 14 1 1
BITMAP
C0C0
C0C0
C0C0
C0C0
C0C0
E1C0
7380
3F00
1E00
0C00
0C00
0C00
0C00
0C00
ENDCHAR
STARTCHAR C0090-Z
ENCODING 90
SWIDTH 562 0
DWIDTH 12 0
BBX 10 14 1 1
BITMAP
FFC0
FFC0
00C0
01C0
0380
0700
0E00
1C00
3800
7000
E000
C000
FFC0
FFC0
ENDCHAR
STARTCHAR C0091-[
ENCODING 91
SWIDTH 562 0
DWIDTH 12 0
BBX 6 16 4 1
BITMAP
FC
FC
C0
C0
C0
C0
C0
C0
C0
C0
C0
C0
C0
C0
FC
FC
ENDCHAR
STARTCHAR C0092-\
ENCODING 92
SWIDTH 562 0
DWIDTH 12 0
BBX 10 14 1 1
BITMAP
C000
C000
C000
E000
7000
3800
1C00
0E00
0700
0380
01C0
00C0
00C0
00C0
ENDCHAR
STARTCHAR C0093-]
ENCODING 93
SWIDTH 562 0
DWIDTH 12 0
BBX 6 16 2 1
BITMAP
FC
FC
0C
0C
0C
0C
0C
0C
0C
0C
0C
0C
0C
0C
FC
FC
ENDCHAR
STARTCHAR C0094-^
ENCODING 94
SWIDTH 562 0
DWIDTH 12 0
BBX 10 5 1 10
BITMAP
1E00
1E00
7380
E1C0
E1C0
ENDCHAR
STARTCHAR C0095-_
ENCODING 95
SWIDTH 562 0
DWIDTH 12 0
BBX 12 2 0 0
BITMAP
FFF0
FFF0
ENDCHAR
STARTCHAR C0096-`
ENCODING 96
SWIDTH 562 0
DWIDTH 12 0
BBX 5 3 3 12
BITMAP
E0
70
18
ENDCHAR
STARTCHAR C0097-a
ENCODING 97
SWIDTH 562 0
DWIDTH 12 0
BBX 10 12 1 1
BITMAP
3F00
3F80
01C0
00C0
3EC0
7FC0
E1C0
C0C0
C0C0
E1C0
7FC0
3EC0
ENDCHAR
STARTCHAR C0098-b
ENCODING 98
SWIDTH 562 0
DWIDTH 12 0
BBX 10 14 1 1
BITMAP
C000
C000
C000
CE00
DF00
FB80
F1C0
E0C0
E0C0
E0C0
F1C0
FB80
DF00
CE00
ENDCHAR
STARTCHAR C0099-c
ENCODING 99
SWIDTH 562 0
DWIDTH 12 0
BBX 10 11 1 1
BITMAP
3F00
7F80
E1C0
C0C0
C000
C000
C000
C0C0
E1C0
7F80
3F00
ENDCHAR
STARTCHAR C0100-d
ENCODING 100
SWIDTH 562 0
DWIDTH 12 0
BBX 9 14 1 1
BITMAP
0180
0180
0180
1980
3F80
7F80
E780
C180
C180
C180
E780
7F80
3F80
1980
ENDCHAR
STARTCHAR C0101-e
ENCODING 101
SWIDTH 562 0
DWIDTH 12 0
BBX 10 11 1 1
BITMAP
3F00
7F80
E1C0
C0C0
FFC0
FF80
C000
C000
E1C0
7F80
3F00
ENDCHAR
STARTCHAR C0102-f
ENCODING 102
SWIDTH 562 0
DWIDTH 12 0
BBX 8 14 2 1
BITMAP
0F
1F
18
FF
FF
18
18
18
18
18
18
18
18
18
ENDCHAR
STARTCHAR C0103-g
ENCODING 103
SWIDTH 562 0
DWIDTH 12 0
BBX 10 12 1 1
BITMAP
3F00
7F80
E1C0
C0C0
E1C0
7FC0
3EC0
00C0
00C0
61C0
7F80
3F00
ENDCHAR
STARTCHAR C0104-h
ENCODING 104
SWIDTH 562 0
DWIDTH 12 0
BBX 10 14 1 1
BITMAP
C000
C000
C000
CE00
DF00
FB80
F1C0
E0C0
C0C0
C0C0
C0C0
C0C0
C0C0
C0C0
ENDCHAR
STARTCHAR C0105-i
ENCODING 105
SWIDTH 562 0
DWIDTH 12 0
BBX 6 13 3 1
BITMAP
30
30
00
00
F0
F0
30
30
30
30
38
1C
0C
ENDCHAR
STARTCHAR C0106-j
ENCODING 106
SWIDTH 562 0
DWIDTH 12 0
BBX 6 15 3 1
BITMAP
0C
0C
00
00
3C
3C
0C
0C
0C
0C
0C
0C
1C
F8
F0
ENDCHAR
STARTCHAR C0107-k
ENCODING 107
SWIDTH 562 0
DWIDTH 12 0
BBX 10 14 1 1
BITMAP
C000
C000
C000
C0C0
C1C0
C380
C700
CE00
DC00
FE00
F700
E380
C1C0
C0C0
ENDCHAR
STARTCHAR C0108-l
ENCODING 108
SWIDTH 562 0
DWIDTH 12 0
BBX 2 14 5 1
BITMAP
C0
C0
C0
C0
C0
C0
C0
C0
C0
C0
C0
C0
C0
C0
ENDCHAR
STARTCHAR C0109-m
ENCODING 109
SWIDTH 562 0
DWIDTH 12 0
BBX 10 11 1 1
BITMAP
DF00
FF80
EDC0
CCC0
CCC0
CCC0
CCC0
CCC0
CCC0
CCC0
CCC0
ENDCHAR
STARTCHAR C0110-n
ENCODING 110
SWIDTH 562 0
DWIDTH 12 0
BBX 10 11 1 1
BITMAP
DF00
FF80
E1C0
C0C0
C0C0
C0C0
C0C0
C0C0
C0C0
C0C0
C0C0
ENDCHAR
STARTCHAR C0111-o
ENCODING 111
SWIDTH 562 0
DWIDTH 12 0
BBX 10 11 1 1
BITMAP
3F00
7F80
E1C0
C0C0
C0C0
C0C0
C0C0
C0C0
E1C0
7F80
3F00
ENDCHAR
STARTCHAR C0112-p
ENCODING 112
SWIDTH 562 0
DWIDTH 12 0
BBX 10 12 1 1
BITMAP
DF00
FF80
F1C0
E0C0
E0C0
E0C0
E0C0
FF80
DF00
C000
C000
C000
ENDCHAR
STARTCHAR C0113-q
ENCODING 113
SWIDTH 562 0
DWIDTH 12 0
BBX 10 12 1 1
BITMAP
3EC0
7FC0
E3C0
C1C0
C1C0
C1C0
E3C0
7FC0
3DC0
00C0
00C0
00C0
ENDCHAR
STARTCHAR C0114-r
ENCODING 114
SWIDTH 562 0
DWIDTH 12 0
BBX 10 11 1 1
BITMAP
CF00
DF80
F9C0
F0C0
E000
C000
C000
C000
C000
C000
C000
ENDCHAR
STARTCHAR C0115-s
ENCODING 115
SWIDTH 562 0
DWIDTH 12 0
BBX 10 11 1 1
BITMAP
3F00
7F80
E1C0
E0C0
7C00
1F00
0780
C1C0
E1C0
7F80
3F00
ENDCHAR
STARTCHAR C0116-t
ENCODING 116
SWIDTH 562 0
DWIDTH 12 0
BBX 6 14 3 1
BITMAP
30
30
30
FC
FC
30
30
30
30
30
30
38
1C
0C
ENDCHAR
STARTCHAR C0117-u
ENCODING 117
SWIDTH 562 0
DWIDTH 12 0
BBX 10 11 1 1
BITMAP
C0C0
C0C0
C0C0
C0C0
C0C0
C0C0
C0C0
C0C0
E1C0
7F80
3F00
ENDCHAR
STARTCHAR C0118-v
ENCODING 118
SWIDTH 562 0
DWIDTH 12 0
BBX 10 11 1 1
BITMAP
C0C0
C0C0
C0C0
C0C0
C0C0
C0C0
E1C0
7380
3F00
1E00
0C00
ENDCHAR
STARTCHAR C0119-w
ENCODING 119
SWIDTH 562 0
DWIDTH 12 0
BBX 10 11 1 1
BITMAP
C0C0
C0C0
C0C0
C0C0
CCC0
CCC0
CCC0
CCC0
EDC0
7F80
3300
ENDCHAR
STARTCHAR C0120-x
ENCODING 120
SWIDTH 562 0
DWIDTH 12 0
BBX 10 11 1 1
BITMAP
C0C0
E1C0
7380
3F00
1E00
0C00
1E00
3F00
7380
E1C0
C0C0
ENDCHAR
STARTCHAR C0121-y
ENCODING 121
SWIDTH 562 0
DWIDTH 12 0
BBX 10 12 1 1
BITMAP
C0C0
C0C0
C1C0
C1C0
C3C0
E7C0
7EC0
3CC0
00C0
01C0
3F80
3F00
ENDCHAR
STARTCHAR C0122-z
ENCODING 122
SWIDTH 562 0
DWIDTH 12 0
BBX 10 11 1 1
BITMAP
FFC0
FFC0
01C0
0380
0700
0E00
1C00
3800
7000
FFC0
FFC0
ENDCHAR
STARTCHAR C0123-{
ENCODING 123
SWIDTH 562 0
DWIDTH 12 0
BBX 6 16 3 1
BITMAP
1C
1C
3C
30
30
30
30
E0
E0
30
30
30
30
3C
1C
1C
ENDCHAR
STARTCHAR C0124-|
ENCODING 124
SWIDTH 562 0
DWIDTH 12 0
BBX 2 16 5 1
BITMAP
C0
C0
C0
C0
C0
C0
C0
C0
C0
C0
C0
C0
C0
C0
C0
C0
ENDCHAR
STARTCHAR C0125-}
ENCODING 125
SWIDTH 562 0
DWIDTH 12 0
BBX 6 16 3 1
BITMAP
E0
E0
F0
30
30
30
30
1C
1C
30
30
30
30
F0
E0
E0
ENDCHAR
STARTCHAR C0126-~
ENCODING 126
SWIDTH 562 0
DWIDTH 12 0
BBX 10 4 1 6
BITMAP
3840
7CC0
CF80
8700
ENDCHAR
STARTCHAR C0127
ENCODING 127
SWIDTH 562 0
DWIDTH 12 0
BBX 1 1 0 -1
BITMAP
00
ENDCHAR
STARTCHAR C0128
ENCODING 128
SWIDTH 562 0
DWIDTH 12 0
BBX 10 16 1 1
BITMAP
0F00
0F00
38C0
38C0
6000
FC00
FC00
6000
FC00
FC00
6000
6000
7800
38C0
1F80
0F00
ENDCHAR
STARTCHAR C0129
ENCODING 129
SWIDTH 562 0
DWIDTH 12 0
BBX 10 14 1 1
BITMAP
3F00
7F80
C0C0
C0C0
01C0
0380
0700
0E00
0C00
0000
0000
0000
0C00
0C00
ENDCHAR
STARTCHAR C0130
ENCODING 130
SWIDTH 562 0
DWIDTH 12 0
BBX 10 14 1 1
BITMAP
3F00
7F80
C0C0
C0C0
01C0
0380
0700
0E00
0C00
0000
0000
0000
0C00
0C00
ENDCHAR
STARTCHAR C0131
ENCODING 131
SWIDTH 562 0
DWIDTH 12 0
BBX 10 14 1 1
BITMAP
3F00
7F80
C0C0
C0C0
01C0
0380
0700
0E00
0C00
0000
0000
0000
0C00
0C00
ENDCHAR
STARTCHAR C0132
ENCODING 132
SWIDTH 562 0
DWIDTH 12 0
BBX 10 14 1 1
BITMAP
3F00
7F80
C0C0
C0C0
01C0
0380
0700
0E00
0C00
0000
0000
0000
0C00
0C00
ENDCHAR
STARTCHAR C0133
ENCODING 133
SWIDTH 562 0
DWIDTH 12 0
BBX 10 14 1 1
BITMAP
3F00
7F80
C0C0
C0C0
01C0
0380
0700
0E00
0C00
0000
0000
0000
0C00
0C00
ENDCHAR
STARTCHAR C0134
ENCODING 134
SWIDTH 562 0
DWIDTH 12 0
BBX 10 14 1 1
BITMAP
3F00
7F80
C0C0
C0C0
01C0
0380
0700
0E00
0C00
0000
0000
0000
0C00
0C00
ENDCHAR
STARTCHAR C0135
ENCODING 135
SWIDTH 562 0
DWIDTH 12 0
BBX 10 14 1 1
BITMAP
3F00
7F80
C0C0
C0C0
01C0
0380
0700
0E00
0C00
0000
0000
0000
0C00
0C00
ENDCHAR
STARTCHAR C0136
ENCODING 136
SWIDTH 562 0
DWIDTH 12 0
BBX 10 14 1 1
BITMAP
3F00
7F80
C0C0
C0C0
01C0
0380
0700
0E00
0C00
0000
0000
0000
0C00
0C00
ENDCHAR
STARTCHAR C0137
ENCODING 137
SWIDTH 562 0
DWIDTH 12 0
BBX 10 14 1 1
BITMAP
3F00
7F80
C0C0
C0C0
01C0
0380
0700
0E00
0C00
0000
0000
0000
0C00
0C00
ENDCHAR
STARTCHAR C0138
ENCODING 138
SWIDTH 562 0
DWIDTH 12 0
BBX 10 14 1 1
BITMAP
3F00
7F80
C0C0
C0C0
01C0
0380
0700
0E00
0C00
0000
0000
0000
0C00
0C00
ENDCHAR
STARTCHAR C0139
ENCODING 139
SWIDTH 562 0
DWIDTH 12 0
BBX 10 14 1 1
BITMAP
3F00
7F80
C0C0
C0C0
01C0
0380
0700
0E00
0C00
0000
0000
0000
0C00
0C00
ENDCHAR
STARTCHAR C0140
ENCODING 140
SWIDTH 562 0
DWIDTH 12 0
BBX 10 14 1 1
BITMAP
3F00
7F80
C0C0
C0C0
01C0
0380
0700
0E00
0C00
0000
0000
0000
0C00
0C00
ENDCHAR
STARTCHAR C0141
ENCODING 141
SWIDTH 562 0
DWIDTH 12 0
BBX 10 14 1 1
BITMAP
3F00
7F80
C0C0
C0C0
01C0
0380
0700
0E00
0C00
0000
0000
0000
0C00
0C00
ENDCHAR
STARTCHAR C0142
ENCODING 142
SWIDTH 562 0
DWIDTH 12 0
BBX 10 14 1 1
BITMAP
3F00
7F80
C0C0
C0C0
01C0
0380
0700
0E00
0C00
0000
0000
0000
0C00
0C00
ENDCHAR
STARTCHAR C0143
ENCODING 143
SWIDTH 562 0
DWIDTH 12 0
BBX 10 14 1 1
BITMAP
3F00
7F80
C0C0
C0C0
01C0
0380
0700
0E00
0C00
0000
0000
0000
0C00
0C00
ENDCHAR
STARTCHAR C0144
ENCODING 144
SWIDTH 562 0
DWIDTH 12 0
BBX 10 14 1 1
BITMAP
3F00
7F80
C0C0
C0C0
01C0
0380
0700
0E00
0C00
0000
0000
0000
0C00
0C00
ENDCHAR
STARTCHAR C0145
ENCODING 145
SWIDTH 562 0
DWIDTH 12 0
BBX 10 14 1 1
BITMAP
3F00
7F80
C0C0
C0C0
01C0
0380
0700
0E00
0C00
0000
0000
0000
0C00
0C00
ENDCHAR
STARTCHAR C0146
ENCODING 146
SWIDTH 562 0
DWIDTH 12 0
BBX 10 14 1 1
BITMAP
3F00
7F80
C0C0
C0C0
01C0
0380
0700
0E00
0C00
0000
0000
0000
0C00
0C00
ENDCHAR
STARTCHAR C0147
ENCODING 147
SWIDTH 562 0
DWIDTH 12 0
BBX 10 14 1 1
BITMAP
3F00
7F80
C0C0
C0C0
01C0
0380
0700
0E00
0C00
0000
0000
0000
0C00
0C00
ENDCHAR
STARTCHAR C0148
ENCODING 148
SWIDTH 562 0
DWIDTH 12 0
BBX 10 14 1 1
BITMAP
3F00
7F80
C0C0
C0C0
01C0
0380
0700
0E00
0C00
0000
0000
0000
0C00
0C00
ENDCHAR
STARTCHAR C0149
ENCODING 149
SWIDTH 562 0
DWIDTH 12 0
BBX 10 14 1 1
BITMAP
3F00
7F80
C0C0
C0C0
01C0
0380
0700
0E00
0C00
0000
0000
0000
0C00
0C00
ENDCHAR
STARTCHAR C0150
ENCODING 150
SWIDTH 562 0
DWIDTH 12 0
BBX 10 14 1 1
BITMAP
3F00
7F80
C0C0
C0C0
01C0
0380
0700
0E00
0C00
0000
0000
0000
0C00
0C00
ENDCHAR
STARTCHAR C0151
ENCODING 151
SWIDTH 562 0
DWIDTH 12 0
BBX 10 14 1 1
BITMAP
3F00
7F80
C0C0
C0C0
01C0
0380
0700
0E00
0C00
0000
0000
0000
0C00
0C00
ENDCHAR
STARTCHAR C0152
ENCODING 152
SWIDTH 562 0
DWIDTH 12 0
BBX 10 14 1 1
BITMAP
3F00
7F80
C0C0
C0C0
01C0
0380
0700
0E00
0C00
0000
0000
0000
0C00
0C00
ENDCHAR
STARTCHAR C0153
ENCODING 153
SWIDTH 562 0
DWIDTH 12 0
BBX 10 14 1 1
BITMAP
3F00
7F80
C0C0
C0C0
01C0
0380
0700
0E00
0C00
0000
0000
0000
0C00
0C00
ENDCHAR
STARTCHAR C0154
ENCODING 154
SWIDTH 562 0
DWIDTH 12 0
BBX 10 14 1 1
BITMAP
3F00
7F80
C0C0
C0C0
01C0
0380
0700
0E00
0C00
0000
0000
0000
0C00
0C00
ENDCHAR
STARTCHAR C0155
ENCODING 155
SWIDTH 562 0
DWIDTH 12 0
BBX 10 14 1 1
BITMAP
3F00
7F80
C0C0
C0C0
01C0
0380
0700
0E00
0C00
0000
0000
0000
0C00
0C00
ENDCHAR
STARTCHAR C0156
ENCODING 156
SWIDTH 562 0
DWIDTH 12 0
BBX 10 14 1 1
BITMAP
3F00
7F80
C0C0
C0C0
01C0
0380
0700
0E00
0C00
0000
0000
0000
0C00
0C00
ENDCHAR
STARTCHAR C0157
ENCODING 157
SWIDTH 562 0
DWIDTH 12 0
BBX 10 14 1 1
BITMAP
3F00
7F80
C0C0
C0C0
01C0
0380
0700
0E00
0C00
0000
0000
0000
0C00
0C00
ENDCHAR
STARTCHAR C0158
ENCODING 158
SWIDTH 562 0
DWIDTH 12 0
BBX 10 14 1 1
BITMAP
3F00
7F80
C0C0
C0C0
01C0
0380
0700
0E00
0C00
0000
0000
0000
0C00
0C00
ENDCHAR
STARTCHAR C0159
ENCODING 159
SWIDTH 562 0
DWIDTH 12 0
BBX 10 14 1 1
BITMAP
3F00
7F80
C0C0
C0C0
01C0
0380
0700
0E00
0C00
0000
0000
0000
0C00
0C00
ENDCHAR
STARTCHAR C0160
ENCODING 160
SWIDTH 562 0
DWIDTH 12 0
BBX 10 14 1 1
BITMAP
3F00
7F80
C0C0
C0C0
01C0
0380
0700
0E00
0C00
0000
0000
0000
0C00
0C00
ENDCHAR
STARTCHAR C0161
ENCODING 161
SWIDTH 562 0
DWIDTH 12 0
BBX 10 14 1 1
BITMAP
3F00
7F80
C0C0
C0C0
01C0
0380
0700
0E00
0C00
0000
0000
0000
0C00
0C00
ENDCHAR
STARTCHAR C0162
ENCODING 162
SWIDTH 562 0
DWIDTH 12 0
BBX 10 14 1 1
BITMAP
3F00
7F80
C0C0
C0C0
01C0
0380
0700
0E00
0C00
0000
0000
0000
0C00
0C00
ENDCHAR
STARTCHAR C0163
ENCODING 163
SWIDTH 562 0
DWIDTH 12 0
BBX 10 14 1 1
BITMAP
3F00
7F80
C0C0
C0C0
01C0
0380
0700
0E00
0C00
0000
0000
0000
0C00
0C00
ENDCHAR
STARTCHAR C0164
ENCODING 164
SWIDTH 562 0
DWIDTH 12 0
BBX 10 14 1 1
BITMAP
3F00
7F80
C0C0
C0C0
01C0
0380
0700
0E00
0C00
0000
0000
0000
0C00
0C00
ENDCHAR
STARTCHAR C0165
ENCODING 165
SWIDTH 562 0
DWIDTH 12 0
BBX 10 14 1 1
BITMAP
3F00
7F80
C0C0
C0C0
01C0
0380
0700
0E00
0C00
0000
0000
0000
0C00
0C00
ENDCHAR
STARTCHAR C0166
ENCODING 166
SWIDTH 562 0
DWIDTH 12 0
BBX 10 14 1 1
BITMAP
3F00
7F80
C0C0
C0C0
01C0
0380
0700
0E00
0C00
0000
0000
0000
0C00
0C00
ENDCHAR
STARTCHAR C0167
ENCODING 167
SWIDTH 562 0
DWIDTH 12 0
BBX 10 14 1 1
BITMAP
3F00
7F80
C0C0
C0C0
01C0
0380
0700
0E00
0C00
0000
0000
0000
0C00
0C00
ENDCHAR
STARTCHAR C0168
ENCODING 168
SWIDTH 562 0
DWIDTH 12 0
BBX 10 14 1 1
BITMAP
3F00
7F80
C0C0
C0C0
01C0
0380
0700
0E00
0C00
0000
0000
0000
0C00
0C00
ENDCHAR
STARTCHAR C0169
ENCODING 169
SWIDTH 562 0
DWIDTH 12 0
BBX 10 14 1 1
BITMAP
3F00
7F80
C0C0
C0C0
01C0
0380
0700
0E00
0C00
0000
0000
0000
0C00
0C00
ENDCHAR
STARTCHAR C0170
ENCODING 170
SWIDTH 562 0
DWIDTH 12 0
BBX 10 14 1 1
BITMAP
3F00
7F80
C0C0
C0C0
01C0
0380
0700
0E00
0C00
0000
0000
0000
0C00
0C00
ENDCHAR
STARTCHAR C0171
ENCODING 171
SWIDTH 562 0
DWIDTH 12 0
BBX 10 14 1 1
BITMAP
3F00
7F80
C0C0
C0C0
01C0
0380
0700
0E00
0C00
0000
0000
0000
0C00
0C00
ENDCHAR
STARTCHAR C0172
ENCODING 172
SWIDTH 562 0
DWIDTH 12 0
BBX 10 14 1 1
BITMAP
3F00
7F80
C0C0
C0C0
01C0
0380
0700
0E00
0C00
0000
0000
0000
0C00
0C00
ENDCHAR
STARTCHAR C0173
ENCODING 173
SWIDTH 562 0
DWIDTH 12 0
BBX 10 14 1 1
BITMAP
3F00
7F80
C0C0
C0C0
01C0
0380
0700
0E00
0C00
0000
0000
0000
0C00
0C00
ENDCHAR
STARTCHAR C0174
ENCODING 174
SWIDTH 562 0
DWIDTH 12 0
BBX 10 14 1 1
BITMAP
3F00
7F80
C0C0
C0C0
01C0
0380
0700
0E00
0C00
0000
0000
0000
0C00
0C00
ENDCHAR
STARTCHAR C0175
ENCODING 175
SWIDTH 562 0
DWIDTH 12 0
BBX 10 14 1 1
BITMAP
3F00
7F80
C0C0
C0C0
01C0
0380
0700
0E00
0C00
0000
0000
0000
0C00
0C00
ENDCHAR
STARTCHAR C0176
ENCODING 176
SWIDTH 562 0
DWIDTH 12 0
BBX 10 14 1 1
BITMAP
3F00
7F80
C0C0
C0C0
01C0
0380
0700
0E00
0C00
0000
0000
0000
0C00
0C00
ENDCHAR
STARTCHAR C0177
ENCODING 177
SWIDTH 562 0
DWIDTH 12 0
BBX 10 14 1 1
BITMAP
3F00
7F80
C0C0
C0C0
01C0
0380
0700
0E00
0C00
0000
0000
0000
0C00
0C00
ENDCHAR
STARTCHAR C0178
ENCODING 178
SWIDTH 562 0
DWIDTH 12 0
BBX 10 14 1 1
BITMAP
3F00
7F80
C0C0
C0C0
01C0
0380
0700
0E00
0C00
0000
0000
0000
0C00
0C00
ENDCHAR
STARTCHAR C0179
ENCODING 179
SWIDTH 562 0
DWIDTH 12 0
BBX 10 14 1 1
BITMAP
3F00
7F80
C0C0
C0C0
01C0
0380
0700
0E00
0C00
0000
0000
0000
0C00
0C00
ENDCHAR
STARTCHAR C0180
ENCODING 180
SWIDTH 562 0
DWIDTH 12 0
BBX 10 14 1 1
BITMAP
3F00
7F80
C0C0
C0C0
01C0
0380
0700
0E00
0C00
0000
0000
0000
0C00
0C00
ENDCHAR
STARTCHAR C0181
ENCODING 181
SWIDTH 562 0
DWIDTH 12 0
BBX 10 14 1 1
BITMAP
3F00
7F80
C0C0
C0C0
01C0
0380
0700
0E00
0C00
0000
0000
0000
0C00
0C00
ENDCHAR
STARTCHAR C0182
ENCODING 182
SWIDTH 562 0
DWIDTH 12 0
BBX 10 14 1 1
BITMAP
3F00
7F80
C0C0
C0C0
01C0
0380
0700
0E00
0C00
0000
0000
0000
0C00
0C00
ENDCHAR
STARTCHAR C0183
ENCODING 183
SWIDTH 562 0
DWIDTH 12 0
BBX 10 14 1 1
BITMAP
3F00
7F80
C0C0
C0C0
01C0
0380
0700
0E00
0C00
0000
0000
0000
0C00
0C00
ENDCHAR
STARTCHAR C0184
ENCODING 184
SWIDTH 562 0
DWIDTH 12 0
BBX 10 14 1 1
BITMAP
3F00
7F80
C0C0
C0C0
01C0
0380
0700
0E00
0C00
0000
0000
0000
0C00
0C00
ENDCHAR
STARTCHAR C0185
ENCODING 185
SWIDTH 562 0
DWIDTH 12 0
BBX 10 14 1 1
BITMAP
3F00
7F80
C0C0
C0C0
01C0
0380
0700
0E00
0C00
0000
0000
0000
0C00
0C00
ENDCHAR
STARTCHAR C0186
ENCODING 186
SWIDTH 562 0
DWIDTH 12 0
BBX 10 14 1 1
BITMAP
3F00
7F80
C0C0
C0C0
01C0
0380
0700
0E00
0C00
0000
0000
0000
0C00
0C00
ENDCHAR
STARTCHAR C0187
ENCODING 187
SWIDTH 562 0
DWIDTH 12 0
BBX 10 14 1 1
BITMAP
3F00
7F80
C0C0
C0C0
01C0
0380
0700
0E00
0C00
0000
0000
0000
0C00
0C00
ENDCHAR
STARTCHAR C0188
ENCODING 188
SWIDTH 562 0
DWIDTH 12 0
BBX 10 14 1 1
BITMAP
3F00
7F80
C0C0
C0C0
01C0
0380
0700
0E00
0C00
0000
0000
0000
0C00
0C00
ENDCHAR
STARTCHAR C0189
ENCODING 189
SWIDTH 562 0
DWIDTH 12 0
BBX 10 14 1 1
BITMAP
3F00
7F80
C0C0
C0C0
01C0
0380
0700
0E00
0C00
0000
0000
0000
0C00
0C00
ENDCHAR
STARTCHAR C0190
ENCODING 190
SWIDTH 562 0
DWIDTH 12 0
BBX 10 14 1 1
BITMAP
3F00
7F80
C0C0
C0C0
01C0
0380
0700
0E00
0C00
0000
0000
0000
0C00
0C00
ENDCHAR
STARTCHAR C0191
ENCODING 191
SWIDTH 562 0
DWIDTH 12 0
BBX 10 14 1 1
BITMAP
3F00
7F80
C0C0
C0C0
01C0
0380
0700
0E00
0C00
0000
0000
0000
0C00
0C00
ENDCHAR
STARTCHAR C0192
ENCODING 192
SWIDTH 562 0
DWIDTH 12 0
BBX 10 14 1 1
BITMAP
3F00
7F80
C0C0
C0C0
01C0
0380
0700
0E00
0C00
0000
0000
0000
0C00
0C00
ENDCHAR
STARTCHAR C0193
ENCODING 193
SWIDTH 562 0
DWIDTH 12 0
BBX 10 14 1 1
BITMAP
3F00
7F80
C0C0
C0C0
01C0
0380
0700
0E00
0C00
0000
0000
0000
0C00
0C00
ENDCHAR
STARTCHAR C0194
ENCODING 194
SWIDTH 562 0
DWIDTH 12 0
BBX 10 14 1 1
BITMAP
3F00
7F80
C0C0
C0C0
01C0
0380
0700
0E00
0C00
0000
0000
0000
0C00
0C00
ENDCHAR
STARTCHAR C0195
ENCODING 195
SWIDTH 562 0
DWIDTH 12 0
BBX 10 14 1 1
BITMAP
3F00
7F80
C0C0
C0C0
01C0
0380
0700
0E00
0C00
0000
0000
0000
0C00
0C00
ENDCHAR
STARTCHAR C0196
ENCODING 196
SWIDTH 562 0
DWIDTH 12 0
BBX 10 14 1 1
BITMAP
3F00
7F80
C0C0
C0C0
01C0
0380
0700
0E00
0C00
0000
0000
0000
0C00
0C00
ENDCHAR
STARTCHAR C0197
ENCODING 197
SWIDTH 562 0
DWIDTH 12 0
BBX 10 14 1 1
BITMAP
3F00
7F80
C0C0
C0C0
01C0
0380
0700
0E00
0C00
0000
0000
0000
0C00
0C00
ENDCHAR
STARTCHAR C0198
ENCODING 198
SWIDTH 562 0
DWIDTH 12 0
BBX 10 14 1 1
BITMAP
3F00
7F80
C0C0
C0C0
01C0
0380
0700
0E00
0C00
0000
0000
0000
0C00
0C00
ENDCHAR
STARTCHAR C0199
ENCODING 199
SWIDTH 562 0
DWIDTH 12 0
BBX 10 14 1 1
BITMAP
3F00
7F80
C0C0
C0C0
01C0
0380
0700
0E00
0C00
0000
0000
0000
0C00
0C00
ENDCHAR
STARTCHAR C0200
ENCODING 200
SWIDTH 562 0
DWIDTH 12 0
BBX 10 14 1 1
BITMAP
3F00
7F80
C0C0
C0C0
01C0
0380
0700
0E00
0C00
0000
0000
0000
0C00
0C00
ENDCHAR
STARTCHAR C0201
ENCODING 201
SWIDTH 562 0
DWIDTH 12 0
BBX 10 14 1 1
BITMAP
3F00
7F80
C0C0
C0C0
01C0
0380
0700
0E00
0C00
0000
0000
0000
0C00
0C00
ENDCHAR
STARTCHAR C0202
ENCODING 202
SWIDTH 562 0
DWIDTH 12 0
BBX 10 14 1 1
BITMAP
3F00
7F80
C0C0
C0C0
01C0
0380
0700
0E00
0C00
0000
0000
0000
0C00
0C00
ENDCHAR
STARTCHAR C0203
ENCODING 203
SWIDTH 562 0
DWIDTH 12 0
BBX 10 14 1 1
BITMAP
3F00
7F80
C0C0
C0C0
01C0
0380
0700
0E00
0C00
0000
0000
0000
0C00
0C00
ENDCHAR
STARTCHAR C0204
ENCODING 204
SWIDTH 562 0
DWIDTH 12 0
BBX 10 14 1 1
BITMAP
3F00
7F80
C0C0
C0C0
01C0
0380
0700
0E00
0C00
0000
0000
0000
0C00
0C00
ENDCHAR
STARTCHAR C0205
ENCODING 205
SWIDTH 562 0
DWIDTH 12 0
BBX 10 14 1 1
BITMAP
3F00
7F80
C0C0
C0C0
01C0
0380
0700
0E00
0C00
0000
0000
0000
0C00
0C00
ENDCHAR
STARTCHAR C0206
ENCODING 206
SWIDTH 562 0
DWIDTH 12 0
BBX 10 14 1 1
BITMAP
3F00
7F80
C0C0
C0C0
01C0
0380
0700
0E00
0C00
0000
0000
0000
0C00
0C00
ENDCHAR
STARTCHAR C0207
ENCODING 207
SWIDTH 562 0
DWIDTH 12 0
BBX 10 14 1 1
BITMAP
3F00
7F80
C0C0
C0C0
01C0
0380
0700
0E00
0C00
0000
0000
0000
0C00
0C00
ENDCHAR
STARTCHAR C0208
ENCODING 208
SWIDTH 562 0
DWIDTH 12 0
BBX 10 14 1 1
BITMAP
3F00
7F80
C0C0
C0C0
01C0
0380
0700
0E00
0C00
0000
0000
0000
0C00
0C00
ENDCHAR
STARTCHAR C0209
ENCODING 209
SWIDTH 562 0
DWIDTH 12 0
BBX 10 14 1 1
BITMAP
3F00
7F80
C0C0
C0C0
01C0
0380
0700
0E00
0C00
0000
0000
0000
0C00
0C00
ENDCHAR
STARTCHAR C0210
ENCODING 210
SWIDTH 562 0
DWIDTH 12 0
BBX 10 14 1 1
BITMAP
3F00
7F80
C0C0
C0C0
01C0
0380
0700
0E00
0C00
0000
0000
0000
0C00
0C00
ENDCHAR
STARTCHAR C0211
ENCODING 211
SWIDTH 562 0
DWIDTH 12 0
BBX 10 14 1 1
BITMAP
3F00
7F80
C0C0
C0C0
01C0
0380
0700
0E00
0C00
0000
0000
0000
0C00
0C00
ENDCHAR
STARTCHAR C0212
ENCODING 212
SWIDTH 562 0
DWIDTH 12 0
BBX 10 14 1 1
BITMAP
3F00
7F80
C0C0
C0C0
01C0
0380
0700
0E00
0C00
0000
0000
0000
0C00
0C00
ENDCHAR
STARTCHAR C0213
ENCODING 213
SWIDTH 562 0
DWIDTH 12 0
BBX 10 14 1 1
BITMAP
3F00
7F80
C0C0
C0C0
01C0
0380
0700
0E00
0C00
0000
0000
0000
0C00
0C00
ENDCHAR
STARTCHAR C0214
ENCODING 214
SWIDTH 562 0
DWIDTH 12 0
BBX 10 14 1 1
BITMAP
3F00
7F80
C0C0
C0C0
01C0
0380
0700
0E00
0C00
0000
0000
0000
0C00
0C00
ENDCHAR
STARTCHAR C0215
ENCODING 215
SWIDTH 562 0
DWIDTH 12 0
BBX 10 14 1 1
BITMAP
3F00
7F80
C0C0
C0C0
01C0
0380
0700
0E00
0C00
0000
0000
0000
0C00
0C00
ENDCHAR
STARTCHAR C0216
ENCODING 216
SWIDTH 562 0
DWIDTH 12 0
BBX 10 14 1 1
BITMAP
3F00
7F80
C0C0
C0C0
01C0
0380
0700
0E00
0C00
0000
0000
0000
0C00
0C00
ENDCHAR
STARTCHAR C0217
ENCODING 217
SWIDTH 562 0
DWIDTH 12 0
BBX 10 14 1 1
BITMAP
3F00
7F80
C0C0
C0C0
01C0
0380
0700
0E00
0C00
0000
0000
0000
0C00
0C00
ENDCHAR
STARTCHAR C0218
ENCODING 218
SWIDTH 562 0
DWIDTH 12 0
BBX 10 14 1 1
BITMAP
3F00
7F80
C0C0
C0C0
01C0
0380
0700
0E00
0C00
0000
0000
0000
0C00
0C00
ENDCHAR
STARTCHAR C0219
ENCODING 219
SWIDTH 562 0
DWIDTH 12 0
BBX 10 14 1 1
BITMAP
3F00
7F80
C0C0
C0C0
01C0
0380
0700
0E00
0C00
0000
0000
0000
0C00
0C00
ENDCHAR
STARTCHAR C0220
ENCODING 220
SWIDTH 562 0
DWIDTH 12 0
BBX 10 14 1 1
BITMAP
3F00
7F80
C0C0
C0C0
01C0
0380
0700
0E00
0C00
0000
0000
0000
0C00
0C00
ENDCHAR
STARTCHAR C0221
ENCODING 221
SWIDTH 562 0
DWIDTH 12 0
BBX 10 14 1 1
BITMAP
3F00
7F80
C0C0
C0C0
01C0
0380
0700
0E00
0C00
0000
0000
0000
0C00
0C00
ENDCHAR
STARTCHAR C0222
ENCODING 222
SWIDTH 562 0
DWIDTH 12 0
BBX 10 14 1 1
BITMAP
3F00
7F80
C0C0
C0C0
01C0
0380
0700
0E00
0C00
0000
0000
0000
0C00
0C00
ENDCHAR
STARTCHAR C0223
ENCODING 223
SWIDTH 562 0
DWIDTH 12 0
BBX 10 14 1 1
BITMAP
3F00
7F80
C0C0
C0C0
01C0
0380
0700
0E00
0C00
0000
0000
0000
0C00
0C00
ENDCHAR
STARTCHAR C0224
ENCODING 224
SWIDTH 562 0
DWIDTH 12 0
BBX 10 14 1 1
BITMAP
3F00
7F80
C0C0
C0C0
01C0
0380
0700
0E00
0C00
0000
0000
0000
0C00
0C00
ENDCHAR
STARTCHAR C0225
ENCODING 225
SWIDTH 562 0
DWIDTH 12 0
BBX 10 14 1 1
BITMAP
3F00
7F80
C0C0
C0C0
01C0
0380
0700
0E00
0C00
0000
0000
0000
0C00
0C00
ENDCHAR
STARTCHAR C0226
ENCODING 226
SWIDTH 562 0
DWIDTH 12 0
BBX 10 14 1 1
BITMAP
3F00
7F80
C0C0
C0C0
01C0
0380
0700
0E00
0C00
0000
0000
0000
0C00
0C00
ENDCHAR
STARTCHAR C0227
ENCODING 227
SWIDTH 562 0
DWIDTH 12 0
BBX 10 14 1 1
BITMAP
3F00
7F80
C0C0
C0C0
01C0
0380
0700
0E00
0C00
0000
0000
0000
0C00
0C00
ENDCHAR
STARTCHAR C0228
ENCODING 228
SWIDTH 562 0
DWIDTH 12 0
BBX 10 14 1 1
BITMAP
3F00
7F80
C0C0
C0C0
01C0
0380
0700
0E00
0C00
0000
0000
0000
0C00
0C00
ENDCHAR
STARTCHAR C0229
ENCODING 229
SWIDTH 562 0
DWIDTH 12 0
BBX 10 14 1 1
BITMAP
3F00
7F80
C0C0
C0C0
01C0
0380
0700
0E00
0C00
0000
0000
0000
0C00
0C00
ENDCHAR
STARTCHAR C0230
ENCODING 230
SWIDTH 562 0
DWIDTH 12 0
BBX 10 14 1 1
BITMAP
3F00
7F80
C0C0
C0C0
01C0
0380
0700
0E00
0C00
0000
0000
0000
0C00
0C00
ENDCHAR
STARTCHAR C0231
ENCODING 231
SWIDTH 562 0
DWIDTH 12 0
BBX 10 14 1 1
BITMAP
3F00
7F80
C0C0
C0C0
01C0
0380
0700
0E00
0C00
0000
0000
0000
0C00
0C00
ENDCHAR
STARTCHAR C0232
ENCODING 232
SWIDTH 562 0
DWIDTH 12 0
BBX 10 14 1 1
BITMAP
3F00
7F80
C0C0
C0C0
01C0
0380
0700
0E00
0C00
0000
0000
0000
0C00
0C00
ENDCHAR
STARTCHAR C0233
ENCODING 233
SWIDTH 562 0
DWIDTH 12 0
BBX 10 14 1 1
BITMAP
3F00
7F80
C0C0
C0C0
01C0
0380
0700
0E00
0C00
0000
0000
0000
0C00
0C00
ENDCHAR
STARTCHAR C0234
ENCODING 234
SWIDTH 562 0
DWIDTH 12 0
BBX 10 14 1 1
BITMAP
3F00
7F80
C0C0
C0C0
01C0
0380
0700
0E00
0C00
0000
0000
0000
0C00
0C00
ENDCHAR
STARTCHAR C0235
ENCODING 235
SWIDTH 562 0
DWIDTH 12 0
BBX 10 14 1 1
BITMAP
3F00
7F80
C0C0
C0C0
01C0
0380
0700
0E00
0C00
0000
0000
0000
0C00
0C00
ENDCHAR
STARTCHAR C0236
ENCODING 236
SWIDTH 562 0
DWIDTH 12 0
BBX 10 14 1 1
BITMAP
3F00
7F80
C0C0
C0C0
01C0
0380
0700
0E00
0C00
0000
0000
0000
0C00
0C00
ENDCHAR
STARTCHAR C0237
ENCODING 237
SWIDTH 562 0
DWIDTH 12 0
BBX 10 14 1 1
BITMAP
3F00
7F80
C0C0
C0C0
01C0
0380
0700
0E00
0C00
0000
0000
0000
0C00
0C00
ENDCHAR
STARTCHAR C0238
ENCODING 238
SWIDTH 562 0
DWIDTH 12 0
BBX 10 14 1 1
BITMAP
3F00
7F80
C0C0
C0C0
01C0
0380
0700
0E00
0C00
0000
0000
0000
0C00
0C00
ENDCHAR
STARTCHAR C0239
ENCODING 239
SWIDTH 562 0
DWIDTH 12 0
BBX 10 14 1 1
BITMAP
3F00
7F80
C0C0
C0C0
01C0
0380
0700
0E00
0C00
0000
0000
0000
0C00
0C00
ENDCHAR
STARTCHAR C0240
ENCODING 240
SWIDTH 562 0
DWIDTH 12 0
BBX 10 14 1 1
BITMAP
3F00
7F80
C0C0
C0C0
01C0
0380
0700
0E00
0C00
0000
0000
0000
0C00
0C00
ENDCHAR
STARTCHAR C0241
ENCODING 241
SWIDTH 562 0
DWIDTH 12 0
BBX 10 14 1 1
BITMAP
3F00
7F80
C0C0
C0C0
01C0
0380
0700
0E00
0C00
0000
0000
0000
0C00
0C00
ENDCHAR
STARTCHAR C0242
ENCODING 242
SWIDTH 562 0
DWIDTH 12 0
BBX 10 14 1 1
BITMAP
3F00
7F80
C0C0
C0C0
01C0
0380
0700
0E00
0C00
0000
0000
0000
0C00
0C00
ENDCHAR
STARTCHAR C0243
ENCODING 243
SWIDTH 562 0
DWIDTH 12 0
BBX 10 14 1 1
BITMAP
3F00
7F80
C0C0
C0C0
01C0
0380
0700
0E00
0C00
0000
0000
0000
0C00
0C00
ENDCHAR
STARTCHAR C0244
ENCODING 244
SWIDTH 562 0
DWIDTH 12 0
BBX 10 14 1 1
BITMAP
3F00
7F80
C0C0
C0C0
01C0
0380
0700
0E00
0C00
0000
0000
0000
0C00
0C00
ENDCHAR
STARTCHAR C0245
ENCODING 245
SWIDTH 562 0
DWIDTH 12 0
BBX 10 14 1 1
BITMAP
3F00
7F80
C0C0
C0C0
01C0
0380
0700
0E00
0C00
0000
0000
0000
0C00
0C00
ENDCHAR
STARTCHAR C0246
ENCODING 246
SWIDTH 562 0
DWIDTH 12 0
BBX 10 14 1 1
BITMAP
3F00
7F80
C0C0
C0C0
01C0
0380
0700
0E00
0C00
0000
0000
0000
0C00
0C00
ENDCHAR
STARTCHAR C0247
ENCODING 247
SWIDTH 562 0
DWIDTH 12 0
BBX 10 14 1 1
BITMAP
3F00
7F80
C0C0
C0C0
01C0
0380
0700
0E00
0C00
0000
0000
0000
0C00
0C00
ENDCHAR
STARTCHAR C0248
ENCODING 248
SWIDTH 562 0
DWIDTH 12 0
BBX 10 14 1 1
BITMAP
3F00
7F80
C0C0
C0C0
01C0
0380
0700
0E00
0C00
0000
0000
0000
0C00
0C00
ENDCHAR
STARTCHAR C0249
ENCODING 249
SWIDTH 562 0
DWIDTH 12 0
BBX 10 14 1 1
BITMAP
3F00
7F80
C0C0
C0C0
01C0
0380
0700
0E00
0C00
0000
0000
0000
0C00
0C00
ENDCHAR
STARTCHAR C0250
ENCODING 250
SWIDTH 562 0
DWIDTH 12 0
BBX 10 14 1 1
BITMAP
3F00
7F80
C0C0
C0C0
01C0
0380
0700
0E00
0C00
0000
0000
0000
0C00
0C00
ENDCHAR
STARTCHAR C0251
ENCODING 251
SWIDTH 562 0
DWIDTH 12 0
BBX 10 14 1 1
BITMAP
3F00
7F80
C0C0
C0C0
01C0
0380
0700
0E00
0C00
0000
0000
0000
0C00
0C00
ENDCHAR
STARTCHAR C0252
ENCODING 252
SWIDTH 562 0
DWIDTH 12 0
BBX 10 14 1 1
BITMAP
3F00
7F80
C0C0
C0C0
01C0
0380
0700
0E00
0C00
0000
0000
0000
0C00
0C00
ENDCHAR
STARTCHAR C0253
ENCODING 253
SWIDTH 562 0
DWIDTH 12 0
BBX 10 14 1 1
BITMAP
3F00
7F80
C0C0
C0C0
01C0
0380
0700
0E00
0C00
0000
0000
0000
0C00
0C00
ENDCHAR
STARTCHAR C0254
ENCODING 254
SWIDTH 562 0
DWIDTH 12 0
BBX 10 14 1 1
BITMAP
3F00
7F80
C0C0
C0C0
01C0
0380
0700
0E00
0C00
0000
0000
0000
0C00
0C00
ENDCHAR
STARTCHAR C0255
ENCODING 255
SWIDTH 0 0
DWIDTH 0 0
BBX 1 1 0 -1
BITMAP
00
ENDCHAR
ENDFONT

